<svg width="16" height="16" viewBox="0 0 16 16" fill="none" xmlns="http://www.w3.org/2000/svg">
    <path
        d="M5.03206 7.48254C4.75843 7.48219 4.49611 7.58333 4.30397 7.76326C3.90769 8.12087 3.89757 8.70665 4.28128 9.07576L6.44855 10.7392C6.63147 10.9076 6.87976 11.0016 7.13809 11C7.41247 10.9992 7.67539 10.8983 7.86958 10.7193L11.6926 6.57333C11.889 6.39612 11.9998 6.15334 12 5.8998C12.0015 5.66091 11.8995 5.43139 11.7167 5.26238C11.5339 5.09336 11.2856 4.99889 11.0269 5.00001C10.7522 5.00063 10.4891 5.10287 10.2966 5.28388L7.19366 8.76151L5.71932 7.74231C5.53668 7.57473 5.28951 7.48093 5.03206 7.48149V7.48254Z"
        fill="#1ABA6B"></path>
</svg>