<svg width="12" height="14" viewBox="0 0 12 14" fill="none" xmlns="http://www.w3.org/2000/svg">
    <path fill-rule="evenodd" clip-rule="evenodd"
        d="M6.53038 1.09942C6.23751 0.800227 5.76264 0.80019 5.46972 1.09933L3.97047 2.63046L3.90807 2.70263C3.67926 3.00317 3.70006 3.43775 3.97047 3.71392L5.46972 5.24504L5.54038 5.30876C5.83462 5.54241 6.26004 5.52113 6.53038 5.24496L6.59277 5.17278C6.82151 4.87225 6.80068 4.43771 6.5303 4.16158L6.32564 3.95251C8.24389 4.12104 9.75 5.76443 9.75 7.76559C9.75 9.8787 8.07065 11.5929 6 11.5929C3.92935 11.5929 2.25 9.8787 2.25 7.76559C2.25 6.75165 2.46849 6.18376 3.01654 5.52819C3.28551 5.20645 3.2482 4.7229 2.9332 4.44817C2.6182 4.17343 2.14479 4.21154 1.87582 4.53329C1.10273 5.45806 0.75 6.37483 0.75 7.76559C0.75 10.7251 3.10115 13.125 6 13.125C8.89885 13.125 11.25 10.7251 11.25 7.76559C11.25 4.90985 9.06084 2.57513 6.30282 2.41492L6.5303 2.18279L6.5927 2.11063C6.82149 1.81013 6.80072 1.37559 6.53038 1.09942ZM4.5 6.84688C4.5 6.5086 4.77422 6.23438 5.1125 6.23438H6.8875C7.22577 6.23438 7.5 6.5086 7.5 6.84688C7.5 7.18515 7.22577 7.45937 6.8875 7.45937H5.1125C4.77422 7.45937 4.5 7.18515 4.5 6.84688ZM5.1125 8.14844C4.77422 8.14844 4.5 8.42266 4.5 8.76094C4.5 9.09921 4.77422 9.37344 5.1125 9.37344H6.8875C7.22577 9.37344 7.5 9.09921 7.5 8.76094C7.5 8.42266 7.22577 8.14844 6.8875 8.14844H5.1125Z"
        fill="#11A6DA" />
</svg>
    