<svg width="12" height="12" viewBox="0 0 12 12" fill="none" xmlns="http://www.w3.org/2000/svg">
    <path fill-rule="evenodd" clip-rule="evenodd"
        d="M6.47883 10.9007C6.52685 11.1 6.563 11.25 6.99033 11.25L8.73523 11.2465C9.1608 11.2465 9.18121 10.9509 9.20767 10.5675C9.20974 10.5374 9.21185 10.5069 9.2142 10.4759L9.49513 7.00661L11.247 3.26008C11.0715 3.10401 10.8391 3.02833 10.6056 3.05124C10.3722 3.07415 10.1588 3.19358 10.0168 3.3808L9.1444 4.9912L9.08508 4.96146L9.41748 1.35051C9.41748 1.35051 8.36007 0.704952 8.18558 2.24188L8.0172 3.86628L8.00807 3.8318L8.00807 3.83179C7.37762 1.45079 7.36852 1.41642 6.91094 0.751313C6.91094 0.751313 6.03501 0.671711 6.19205 1.75202L6.71551 3.92839L6.80712 3.99049L6.69632 3.94326L4.53091 4.10421L3.48397 5.65251C3.48397 5.65251 4.58064 6.18523 4.9968 5.15565C5.33355 5.39417 5.76663 5.44894 6.15191 5.30174L6.5419 6.2692L5.87535 7.09059L4.96015 6.82817C4.96015 6.82817 4.74902 5.68837 3.46565 6.14499L4.06415 7.64955L5.0474 8.53304C5.28202 9.26715 5.73956 9.90939 6.35607 10.37C6.35607 10.37 6.41016 10.6289 6.46687 10.852C6.47107 10.8685 6.47499 10.8848 6.47883 10.9007ZM1.33645 7.49621C1.32791 7.54102 1.33918 7.58733 1.36732 7.62317V7.62229C1.4053 7.67067 1.46384 7.69824 1.52523 7.69664C1.56283 7.6957 1.59941 7.68418 1.6308 7.6634L2.92551 6.81665C2.9648 6.79364 2.99213 6.75459 3.00034 6.70971C3.00856 6.66483 2.99684 6.6186 2.96826 6.58309C2.90453 6.50382 2.79102 6.48637 2.70652 6.54286L1.41181 7.38961C1.37248 7.41252 1.34498 7.45141 1.33645 7.49621ZM0.966908 5.91843C0.896425 5.93614 0.822372 5.9082 0.781017 5.8483C0.739661 5.78839 0.739661 5.70906 0.781017 5.64916C0.822372 5.58925 0.896425 5.56132 0.966908 5.57903H2.35061C2.42109 5.56132 2.49514 5.58925 2.5365 5.64916C2.57785 5.70906 2.57785 5.78839 2.5365 5.8483C2.49514 5.9082 2.42109 5.93614 2.35061 5.91843H0.966908ZM1.41185 4.19608L2.70656 5.04371V5.03933C2.73949 5.05872 2.77661 5.06983 2.81475 5.0717C2.87307 5.07242 2.9287 5.0471 2.96655 5.00259C2.99496 4.9664 3.00654 4.91974 2.99836 4.87442C2.99019 4.82911 2.96305 4.78947 2.9238 4.76554L1.62909 3.91879C1.54441 3.86315 1.43152 3.88051 1.36736 3.95902C1.33911 3.99544 1.3278 4.04227 1.33631 4.08761C1.34482 4.13295 1.37233 4.17245 1.41185 4.19608Z"
        fill="#1BBA6B" />
</svg>
    