<svg width="10" height="7" viewBox="0 0 10 7" fill="none" xmlns="http://www.w3.org/2000/svg">
    <path fill-rule="evenodd" clip-rule="evenodd"
        d="M0 1.5C0 0.947715 0.447715 0.5 1 0.5C1.55228 0.5 2 0.947715 2 1.5C2 2.05228 1.55228 2.5 1 2.5C0.447715 2.5 0 2.05228 0 1.5ZM3 1.5C3 0.947715 3.44772 0.5 4 0.5H9C9.55229 0.5 10 0.947715 10 1.5C10 2.05228 9.55228 2.5 9 2.5H4C3.44772 2.5 3 2.05228 3 1.5ZM0 5.5C0 4.94772 0.447715 4.5 1 4.5C1.55228 4.5 2 4.94772 2 5.5C2 6.05228 1.55228 6.5 1 6.5C0.447715 6.5 0 6.05228 0 5.5ZM3 5.5C3 4.94772 3.44772 4.5 4 4.5H9C9.55229 4.5 10 4.94772 10 5.5C10 6.05228 9.55228 6.5 9 6.5H4C3.44772 6.5 3 6.05228 3 5.5Z"
        fill="#8C929B" />
</svg>
    